<?xml version="1.0" encoding="utf-8"?>
<!-- Designed by Vexels.com - 2016 All Rights Reserved - https://vexels.com/terms-and-conditions/  -->

<svg version="1.1" id="Capa_1" xmlns="http://www.w3.org/2000/svg" xmlns:xlink="http://www.w3.org/1999/xlink" x="0px" y="0px"
	 width="1200px" height="1200px" viewBox="0 0 1200 1200" enable-background="new 0 0 1200 1200" xml:space="preserve">
<g>
	<g>
		<path fill="#461300" d="M944.476,924.104h-689.51c12.542,35.212,34.448,62.798,61.235,76.812c-0.16,1.507-0.254,3.037-0.254,4.563
			v89.816c0,30.213,27.135,54.706,60.584,54.706c33.426,0,60.562-24.49,60.562-54.706v-84.211h334.666v84.211
			c0,30.213,27.161,54.706,60.566,54.706c33.488,0,60.624-24.49,60.624-54.706v-89.816c0-3.271-0.376-6.543-1.019-9.682
			C914.771,980.73,933.309,955.395,944.476,924.104z"/>
		<path fill="#461300" d="M243.411,579.758v108.608c0,7.094,0.172,14.149,0.488,21.104h-0.488v146.094
			c0,9.682,0.725,19.062,1.939,28.234h708.804c1.215-9.167,1.942-18.553,1.942-28.234V709.47h-0.489
			c0.317-6.954,0.489-14.01,0.489-21.104V581.09c7.171,3.391,14.658,4.135,20.888,1.47l55.939-24.239
			c12.502-5.428,14.895-22.788,5.311-38.677c-9.539-16.007-27.47-24.55-39.969-19.161L956.1,518.764v-26.49
			c0.961-9.639,1.629-19.475,1.629-29.588V289.867c0-99.851-50.516-180.931-112.806-180.931h-80.648
			c0.073-1.351,0.394-2.625,0.394-4.033c0-30.329-24.572-54.903-54.881-54.903H510.066c-30.317,0-54.907,24.574-54.907,54.903
			c0,1.409,0.319,2.682,0.435,4.033h-99.188c-62.289,0-112.783,81.08-112.783,180.931v172.818c0,0.258,0.025,0.432,0.025,0.668
			h-0.233v53.689l-41.681-18.104c-12.521-5.331-30.391,3.135-39.973,19.122c-9.576,15.97-7.186,33.309,5.31,38.736l56,24.235
			C229.101,583.66,236.387,582.916,243.411,579.758z M410.501,814.007c0,23.67-19.182,42.831-42.83,42.831
			c-23.631,0-42.792-19.161-42.792-42.831v-78.102c0-23.628,19.161-42.795,42.792-42.795c23.652,0,42.83,19.163,42.83,42.795
			V814.007z M886.58,814.007c0,23.67-19.187,42.831-42.855,42.831c-23.65,0-42.809-19.161-42.809-42.831v-78.102
			c0-23.628,19.161-42.795,42.809-42.795c23.672,0,42.855,19.163,42.855,42.795V814.007z M311.2,318.279
			c0-87.272,5.232-157.731,92.427-157.888h400.6c94.792,1.507,92.438,70.616,92.438,157.888v150.697
			c0,87.172-41.38,157.831-92.438,157.831h-400.6c-50.981,0-92.427-70.655-92.427-157.831V318.279L311.2,318.279z"/>
	</g>
</g>
</svg>
